<svg xmlns="http://www.w3.org/2000/svg" xmlns:xlink="http://www.w3.org/1999/xlink" viewBox="0,0,256,256" width="48px" height="48px" fill-rule="nonzero"><g fill="#0089ff" fill-rule="nonzero" stroke="none" stroke-width="1" stroke-linecap="butt" stroke-linejoin="miter" stroke-miterlimit="10" stroke-dasharray="" stroke-dashoffset="0" font-family="none" font-weight="none" font-size="none" text-anchor="none" style="mix-blend-mode: normal"><g transform="scale(5.33333,5.33333)"><path d="M24,4c-9.374,0 -17,7.626 -17,17c0,4.036 1.44875,7.95483 4.09375,11.04883c0.302,0.343 7.42664,8.43803 9.80664,10.70703c0.869,0.829 1.98361,1.24414 3.09961,1.24414c1.115,0 2.23156,-0.41514 3.10156,-1.24414c2.767,-2.639 9.52431,-10.38461 9.82031,-10.72461c2.63,-3.077 4.07813,-6.99525 4.07813,-11.03125c0,-9.374 -7.626,-17 -17,-17zM24,12.5c4.694,0 8.5,3.806 8.5,8.5c0,4.694 -3.806,8.5 -8.5,8.5c-4.694,0 -8.5,-3.806 -8.5,-8.5c0,-4.694 3.806,-8.5 8.5,-8.5zM22.95313,17.16211c-0.07838,0.00526 -0.1572,0.02208 -0.23633,0.04883c-1.855,0.628 -3.10037,2.57847 -2.60937,4.73047c0.33,1.446 1.50322,2.62117 2.94922,2.95117c2.152,0.491 4.10442,-0.75338 4.73242,-2.60937c0.215,-0.632 -0.29489,-1.2832 -0.96289,-1.2832h-1.82617c-0.552,0 -1,-0.448 -1,-1v-1.82617c0,-0.5845 -0.49821,-1.04852 -1.04687,-1.01172z"></path></g></g></svg>